<?xml version="1.0" encoding="UTF-8" standalone="no"?>
<!-- Created with Inkscape (http://www.inkscape.org/) -->

<svg
   width="63.500095mm"
   height="55.200981mm"
   viewBox="0 0 63.500095 55.200981"
   version="1.1"
   id="svg5"
   inkscape:version="1.1.2 (b8e25be833, 2022-02-05)"
   sodipodi:docname="illustration-woman-bg-mobile.svg"
   xmlns:inkscape="http://www.inkscape.org/namespaces/inkscape"
   xmlns:sodipodi="http://sodipodi.sourceforge.net/DTD/sodipodi-0.dtd"
   xmlns:xlink="http://www.w3.org/1999/xlink"
   xmlns="http://www.w3.org/2000/svg"
   xmlns:svg="http://www.w3.org/2000/svg">
  <sodipodi:namedview
     id="namedview7"
     pagecolor="#505050"
     bordercolor="#eeeeee"
     borderopacity="1"
     inkscape:pageshadow="0"
     inkscape:pageopacity="0"
     inkscape:pagecheckerboard="0"
     inkscape:document-units="mm"
     showgrid="false"
     inkscape:zoom="1.7411215"
     inkscape:cx="96.202362"
     inkscape:cy="113.71981"
     inkscape:window-width="1600"
     inkscape:window-height="877"
     inkscape:window-x="-8"
     inkscape:window-y="-8"
     inkscape:window-maximized="1"
     inkscape:current-layer="layer1"
     inkscape:lockguides="true"
     inkscape:snap-page="false"
     fit-margin-top="0"
     fit-margin-left="0"
     fit-margin-right="0"
     fit-margin-bottom="0" />
  <defs
     id="defs2">
    <linearGradient
       id="linear-gradient"
       x1="1.78"
       y1="537.83002"
       x2="1.58"
       y2="537.64001"
       gradientTransform="matrix(52.93,0,0,-35.76,42.83,19334.13)"
       gradientUnits="userSpaceOnUse">
      <stop
         offset="0"
         stop-color="#7f3500"
         id="stop95" />
      <stop
         offset="1"
         stop-color="#231f20"
         stop-opacity="0"
         id="stop97" />
    </linearGradient>
    <linearGradient
       id="linear-gradient-2"
       x1="1.8200001"
       y1="531.01001"
       x2="1.3"
       y2="530.66998"
       gradientTransform="matrix(43.55,0,0,-25.69,29.51,13785.7)"
       gradientUnits="userSpaceOnUse">
      <stop
         offset=".03"
         stop-color="#7f3500"
         id="stop100" />
      <stop
         offset="1"
         stop-color="#231f20"
         stop-opacity="0"
         id="stop102" />
    </linearGradient>
    <linearGradient
       id="linear-gradient-3"
       x1="1.33"
       y1="520.5"
       x2="0.74000001"
       y2="520.06"
       gradientTransform="matrix(26.11,0,0,-17.98,42.05,9434.58)"
       gradientUnits="userSpaceOnUse">
      <stop
         offset="0"
         stop-color="#843c09"
         stop-opacity=".85"
         id="stop105" />
      <stop
         offset="1"
         stop-color="#231f20"
         stop-opacity="0"
         id="stop107" />
    </linearGradient>
    <linearGradient
       id="linear-gradient-4"
       x1="2.04"
       y1="537.08002"
       x2="1.9"
       y2="537.14001"
       gradientTransform="matrix(64.69,0,0,-34.67,47.7,18696.01)"
       gradientUnits="userSpaceOnUse">
      <stop
         offset="0"
         stop-color="#fff"
         stop-opacity="0"
         id="stop110" />
      <stop
         offset=".99"
         stop-color="#dc841e"
         id="stop112" />
    </linearGradient>
    <linearGradient
       id="linear-gradient-5"
       x1="1.83"
       y1="531.60999"
       x2="1.3099999"
       y2="531.26001"
       gradientTransform="matrix(43.54,0,0,-26.33,-26.72,14107.68)"
       xlink:href="#linear-gradient-2" />
    <style
       id="style116">.cls-6{fill:#68e1fd}.cls-8{fill:#999a1c}.cls-10{fill:#f47b56}.cls-11{fill:#fff}.cls-15{fill:#f2f2f2}.cls-16{fill:#ff8f6f}.cls-17{fill:#003b94}.cls-18{fill:#3e2928}</style>
    <linearGradient
       inkscape:collect="always"
       xlink:href="#linear-gradient-2"
       id="linearGradient181"
       gradientUnits="userSpaceOnUse"
       gradientTransform="matrix(43.55,0,0,-25.69,29.51,13785.7)"
       x1="1.8200001"
       y1="531.01001"
       x2="1.3"
       y2="530.66998" />
    <clipPath
       clipPathUnits="userSpaceOnUse"
       id="clipPath918">
      <rect
         style="fill:#0000ff;fill-rule:evenodd;stroke-width:0.264583"
         id="rect920"
         width="64.735573"
         height="57.137501"
         x="56.833576"
         y="120.65739" />
    </clipPath>
    <clipPath
       clipPathUnits="userSpaceOnUse"
       id="clipPath922">
      <rect
         style="fill:#0000ff;fill-rule:evenodd;stroke-width:0.999999"
         id="rect924"
         width="244.66988"
         height="215.95276"
         x="-5.1755652"
         y="-3.1348228" />
    </clipPath>
  </defs>
  <g
     inkscape:label="Layer 1"
     inkscape:groupmode="layer"
     id="layer1"
     transform="translate(-57.390866,-121.48754)">
    <g
       id="Group-4"
       transform="matrix(0.26458333,0,0,0.26458333,58.202943,121.48681)"
       clip-path="url(#clipPath922)">
      <g
         id="mention_isometric-2"
         data-name="mention isometric-2">
        <g
           id="mention_isometric"
           data-name="mention isometric">
          <path
             id="Path"
             d="M 114.92,177.69 4.61,112.51 c -3.52,-2 -6.53,-5.21 -3.11,-7.33 L 112.22,41.39 c 1.65,-1 4.18,-1.7 5.87,-0.72 l 115.78,67.19 c 3.52,2 4.15,7.72 0.65,9.78 l -105.06,60 a 14.67,14.67 0 0 1 -14.54,0.05 z"
             style="fill:#5b36a0" />
          <path
             id="Path-Copy"
             d="M 114.92,174.68 4.61,109.5 c -3.52,-2 -6.53,-5.21 -3.11,-7.33 L 112.22,38.38 c 1.65,-1 4.18,-1.7 5.87,-0.72 l 115.78,67.19 c 3.52,2 4.15,7.72 0.65,9.78 l -105.06,60 a 14.67,14.67 0 0 1 -14.54,0.05 z"
             style="fill:#6862e6" />
          <path
             id="Path-2"
             data-name="Path"
             d="m 124,88.69 -21.75,12.41 c 0,0 33.53,20.46 40.39,23.34 l 12.54,-18"
             style="opacity:0.25;isolation:isolate;fill:url(#linear-gradient)" />
          <path
             id="Path-3"
             data-name="Path"
             d="M 116.5,148.26 94.73,135.87 73,148.29 c 0,0 11.34,6.92 22.18,13.27 6.82,-4.87 13.72,-9.79 21.32,-13.3 z"
             style="opacity:0.25;isolation:isolate;fill:url(#linearGradient181)" />
          <path
             id="Path-4"
             data-name="Path"
             d="m 69.59,71.73 -13.81,7.88 c 0,0 1.17,7.22 8,10.11 L 81.89,78.14"
             style="opacity:0.46;isolation:isolate;fill:url(#linear-gradient-3)" />
          <ellipse
             id="Oval"
             class="cls-6"
             cx="76.349998"
             cy="73.75"
             rx="8.3299999"
             ry="5.8600001" />
          <ellipse
             id="Oval-2"
             data-name="Oval"
             cx="76.339996"
             cy="70.290001"
             rx="6.2399998"
             ry="2.55"
             style="fill:#974c26" />
          <path
             id="Shape"
             class="cls-8"
             d="m 76.12,66 c 0,-1.15 0,-2.3 -0.13,-3.45 l -0.09,-0.9 -0.06,-0.58 a 3.49,3.49 0 0 0 -0.09,-0.6 l -0.12,-0.7 a 27.53,27.53 0 0 0 -4.45,-10.89 16,16 0 0 0 -1.25,6.37 c 0,0.65 0.06,1.29 0.11,1.9 v 0.37 c 0,0.31 0.11,0.65 0.17,0.93 a 27.17,27.17 0 0 0 1,3.45 20.33,20.33 0 0 0 1.35,3 c 0.57,1.09 1.18,2.15 1.85,3.19 0.51,0.81 1,1.53 1.49,2.22 A 41.69,41.69 0 0 0 76.12,66 Z M 72.84,53.09 a 1.14,1.14 0 0 0 0,-0.45 c 0.16,0.16 0.32,0.33 0.47,0.5 a 1.24,1.24 0 0 0 -0.47,0 z" />
          <path
             id="Shape-2"
             data-name="Shape"
             class="cls-8"
             d="m 78.26,66.92 a 31.43,31.43 0 0 0 1.75,-3 c 0.15,-0.27 0.28,-0.53 0.42,-0.8 l 0.26,-0.53 0.25,-0.55 c 0.09,-0.22 0.19,-0.44 0.28,-0.65 a 27.49,27.49 0 0 0 2.14,-11.57 15.85,15.85 0 0 0 -4.5,4.69 c -0.34,0.54 -0.65,1.09 -0.94,1.65 l -0.13,0.24 v 0.1 l -0.36,0.87 a 25.67,25.67 0 0 0 -1,3.44 21.35,21.35 0 0 0 -0.5,3.27 c -0.11,1.22 -0.17,2.44 -0.17,3.67 0,1 0,1.83 0.06,2.67 0.8,-1.12 1.66,-2.29 2.44,-3.5 z M 82.5,54.26 a 1,1 0 0 0 0.22,-0.4 c 0,0.23 0.09,0.44 0.12,0.65 A 1.2,1.2 0 0 0 82.5,54.26 Z" />
          <path
             id="Shape-3"
             data-name="Shape"
             class="cls-8"
             d="m 78.21,69.79 c 0.65,-0.33 1.29,-0.67 1.93,-1.05 l 0.49,-0.29 0.31,-0.2 0.31,-0.22 0.36,-0.26 a 17.36,17.36 0 0 0 4.89,-5.55 10.2,10.2 0 0 0 -3.94,1.08 c -0.35,0.18 -0.69,0.38 -1,0.59 l -0.15,0.09 -0.48,0.36 a 16,16 0 0 0 -1.67,1.52 14.38,14.38 0 0 0 -1.32,1.6 c -0.46,0.65 -0.88,1.29 -1.29,1.93 -0.41,0.64 -0.58,1 -0.83,1.47 0.75,-0.31 1.58,-0.67 2.39,-1.07 z m 6.38,-5.47 a 0.77,0.77 0 0 0 0.25,-0.14 c 0,0.14 -0.1,0.27 -0.16,0.4 a 0.58,0.58 0 0 0 -0.09,-0.25 z" />
          <path
             id="Shape-4"
             data-name="Shape"
             class="cls-8"
             d="m 76.12,66 c 0,-1.15 0,-2.3 -0.13,-3.45 l -0.09,-0.9 -0.06,-0.58 a 3.49,3.49 0 0 0 -0.09,-0.6 l -0.12,-0.7 a 27.53,27.53 0 0 0 -4.45,-10.89 16,16 0 0 0 -1.25,6.37 c 0,0.65 0.06,1.29 0.11,1.9 v 0.37 c 0,0.31 0.11,0.65 0.17,0.93 a 27.17,27.17 0 0 0 1,3.45 20.33,20.33 0 0 0 1.35,3 c 0.57,1.09 1.18,2.15 1.85,3.19 0.51,0.81 1,1.53 1.49,2.22 A 41.69,41.69 0 0 0 76.12,66 Z M 72.84,53.09 a 1.14,1.14 0 0 0 0,-0.45 c 0.16,0.16 0.32,0.33 0.47,0.5 a 1.24,1.24 0 0 0 -0.47,0 z" />
          <path
             id="Shape-5"
             data-name="Shape"
             class="cls-8"
             d="m 78.26,66.92 a 31.43,31.43 0 0 0 1.75,-3 c 0.15,-0.27 0.28,-0.53 0.42,-0.8 l 0.26,-0.53 0.25,-0.55 c 0.09,-0.22 0.19,-0.44 0.28,-0.65 a 27.49,27.49 0 0 0 2.14,-11.57 15.85,15.85 0 0 0 -4.5,4.69 c -0.34,0.54 -0.65,1.09 -0.94,1.65 l -0.13,0.24 v 0.1 l -0.36,0.87 a 25.67,25.67 0 0 0 -1,3.44 21.35,21.35 0 0 0 -0.5,3.27 c -0.11,1.22 -0.17,2.44 -0.17,3.67 0,1 0,1.83 0.06,2.67 0.8,-1.12 1.66,-2.29 2.44,-3.5 z M 82.5,54.26 a 1,1 0 0 0 0.22,-0.4 c 0,0.23 0.09,0.44 0.12,0.65 A 1.2,1.2 0 0 0 82.5,54.26 Z" />
          <path
             id="Shape-6"
             data-name="Shape"
             class="cls-8"
             d="m 78.21,69.79 c 0.65,-0.33 1.29,-0.67 1.93,-1.05 l 0.49,-0.29 0.31,-0.2 0.31,-0.22 0.36,-0.26 a 17.36,17.36 0 0 0 4.89,-5.55 10.2,10.2 0 0 0 -3.94,1.08 c -0.35,0.18 -0.69,0.38 -1,0.59 l -0.15,0.09 -0.48,0.36 a 16,16 0 0 0 -1.67,1.52 14.38,14.38 0 0 0 -1.32,1.6 c -0.46,0.65 -0.88,1.29 -1.29,1.93 -0.41,0.64 -0.58,1 -0.83,1.47 0.75,-0.31 1.58,-0.67 2.39,-1.07 z m 6.38,-5.47 a 0.77,0.77 0 0 0 0.25,-0.14 c 0,0.14 -0.1,0.27 -0.16,0.4 a 0.58,0.58 0 0 0 -0.09,-0.25 z" />
          <path
             id="Path-5"
             data-name="Path"
             d="m 132.66,83.84 -12,5.79 a 2.75,2.75 0 0 0 -1.61,2.37 2.79,2.79 0 0 0 1.37,2.51 L 149,111.18 a 2.77,2.77 0 0 0 3.73,-0.9 l 6.94,-10.79"
             style="fill:#a1482d" />
          <path
             id="Path-6"
             data-name="Path"
             class="cls-10"
             d="M 198.19,55.92 102.12,0.58 a 4.33,4.33 0 0 0 -6.49,3.75 v 57.58 a 3.59,3.59 0 0 0 1.8,3.09 l 102.42,59.1 a 2.31,2.31 0 0 0 3.48,-2 V 64.78 a 10.21,10.21 0 0 0 -5.14,-8.86 z" />
          <path
             id="Path-7"
             data-name="Path"
             class="cls-11"
             d="m 102.13,4.93 93.17,53.59 a 6.54,6.54 0 0 1 3.27,5.66 v 43.16 a 2.36,2.36 0 0 1 -3.53,2 L 100,54.9 a 2.34,2.34 0 0 1 -1.18,-2 V 6.83 a 2.2,2.2 0 0 1 3.28,-1.9 z" />
          <ellipse
             id="Oval-3"
             data-name="Oval"
             cx="140.89"
             cy="84.059998"
             rx="2.03"
             ry="2.3199999"
             transform="rotate(-10.9,140.901,84.042)"
             style="fill:#ab643c" />
          <path
             id="Path-8"
             data-name="Path"
             style="opacity:0.32;isolation:isolate;fill:url(#linear-gradient-4)"
             d="m 127.17,63.48 43.3,26.01 21.39,-12.43 -38.22,-22.24" />
          <path
             id="Path-9"
             data-name="Path"
             d="M 180.68,58.31 133.87,29.77 a 1.62,1.62 0 0 0 -2.43,1.46 v 16.26 a 1.69,1.69 0 0 0 0.81,1.47 l 46.81,27.93 a 1.62,1.62 0 0 0 1.61,0 1.64,1.64 0 0 0 0.8,-1.4 l 0.24,-15.16 a 2.27,2.27 0 0 0 -1.03,-2.02 z"
             style="fill:#e2ac00" />
          <path
             id="Path-10"
             data-name="Path"
             class="cls-11"
             d="m 169.48,66.67 c 1.68,2.35 4.63,3 6.58,1.48 1.95,-1.52 2.19,-4.68 0.51,-7 -1.68,-2.32 -4.63,-3 -6.59,-1.47 -1.96,1.53 -2.18,4.65 -0.5,6.99 z" />
          <path
             id="Path-11"
             data-name="Path"
             class="cls-15"
             d="m 164.89,55.41 -19.1,-11.5 a 0.73,0.73 0 0 0 -0.73,1.25 l 19.09,11.49 a 0.73,0.73 0 0 0 0.74,-1.24 z" />
          <path
             id="Path-12"
             data-name="Path"
             class="cls-15"
             d="M 164.1,60.08 137.78,44.24 a 0.72,0.72 0 0 0 -0.87,0.33 0.72,0.72 0 0 0 0.17,0.91 l 26.29,15.85 a 0.72,0.72 0 0 0 0.93,-0.29 0.73,0.73 0 0 0 -0.2,-1 z" />
          <path
             id="Path-13"
             data-name="Path"
             class="cls-10"
             d="M 171.34,61.46 124.55,32.93 a 1.62,1.62 0 0 0 -2.43,1.46 v 16.25 a 1.69,1.69 0 0 0 0.81,1.47 L 169.74,80 a 1.6,1.6 0 0 0 2.41,-1.44 l 0.25,-15.15 a 2.28,2.28 0 0 0 -1.06,-2 z" />
          <path
             id="Path-14"
             data-name="Path"
             class="cls-11"
             d="m 160.14,69.83 c 1.68,2.34 4.63,3 6.58,1.47 1.95,-1.53 2.19,-4.68 0.51,-7 -1.68,-2.32 -4.63,-3 -6.59,-1.47 -1.96,1.53 -2.18,4.65 -0.5,7 z" />
          <path
             id="Path-15"
             data-name="Path"
             class="cls-15"
             d="m 155.54,58.56 -19.1,-11.49 a 0.72,0.72 0 0 0 -0.73,1.24 l 19.09,11.5 a 0.73,0.73 0 0 0 0.93,-0.29 0.72,0.72 0 0 0 -0.2,-1 z" />
          <path
             id="Path-16"
             data-name="Path"
             class="cls-15"
             d="M 154.75,63.26 128.44,47.39 a 0.72,0.72 0 0 0 -0.93,0.29 0.73,0.73 0 0 0 0.2,1 L 154,64.48 a 0.72,0.72 0 0 0 0.93,-0.29 0.73,0.73 0 0 0 -0.2,-1 z" />
          <path
             id="Path-17"
             data-name="Path"
             class="cls-6"
             d="M 159.6,63.37 112.8,34.85 a 1.61,1.61 0 0 0 -2.43,1.46 v 16.25 a 1.7,1.7 0 0 0 0.82,1.46 L 158,82 a 1.61,1.61 0 0 0 2.42,-1.44 l 0.24,-15.15 a 2.3,2.3 0 0 0 -1.05,-2 z" />
          <path
             id="Path-18"
             data-name="Path"
             class="cls-6"
             d="M 159.6,63.37 112.8,34.85 a 1.61,1.61 0 0 0 -2.43,1.46 v 16.25 a 1.7,1.7 0 0 0 0.82,1.46 L 158,82 a 1.61,1.61 0 0 0 2.42,-1.44 l 0.24,-15.15 a 2.3,2.3 0 0 0 -1.05,-2 z" />
          <path
             id="Path-19"
             data-name="Path"
             class="cls-11"
             d="m 148.39,71.74 c 1.68,2.35 4.63,3 6.59,1.47 1.96,-1.53 2.18,-4.67 0.5,-7 -1.68,-2.33 -4.63,-3 -6.59,-1.47 -1.96,1.53 -2.16,4.65 -0.5,7 z" />
          <path
             id="Path-20"
             data-name="Path"
             class="cls-15"
             d="M 143.8,60.47 124.7,49 a 0.73,0.73 0 0 0 -0.73,1.25 l 19.09,11.49 a 0.71,0.71 0 0 0 0.93,-0.29 0.72,0.72 0 0 0 -0.2,-1 z" />
          <path
             id="Path-21"
             data-name="Path"
             class="cls-15"
             d="M 143,65.15 116.69,49.31 a 0.73,0.73 0 0 0 -0.73,1.25 l 26.31,15.84 a 0.73,0.73 0 0 0 0.74,-1.25 z" />
          <path
             id="Path-22"
             data-name="Path"
             class="cls-16"
             d="M 98.18,61.78 A 22.75,22.75 0 0 0 91.55,71.5 C 89.22,77.93 95,88.44 95,88.44 l 9.06,-7.17" />
          <path
             id="Path-23"
             data-name="Path"
             class="cls-17"
             d="m 97.2,146.8 -2.46,-1.35 0.65,-3.52 c 0,0 3.66,0.35 4,1.65" />
          <path
             id="Path-24"
             data-name="Path"
             class="cls-10"
             d="m 98.1,146.75 c 0.56,-0.34 1.13,-0.64 1.71,-0.94 1.42,-0.78 3.47,-1.59 4.35,-3.05 a 1.69,1.69 0 0 0 -0.12,-1.92 c -1.29,-1.56 -4.1,1 -5.55,-0.73 -0.28,-0.34 -0.41,-5.74 -0.41,-5.74 l -5.48,1.47 c 0,0 -0.93,10.87 -0.83,11.54 0.1,0.67 2,1.29 2,1.29 a 4.76,4.76 0 0 0 1.58,-0.65 c 0.58,-0.41 0,-5.51 0.79,-4.8 0.79,0.71 1.05,3.51 1.05,3.51 a 4.06,4.06 0 0 0 0.91,0.02 z" />
          <path
             id="Path-25"
             data-name="Path"
             class="cls-17"
             d="m 107.67,152.06 -2.46,-1.34 0.64,-3.51 c 0,0 3.66,0.35 4,1.64" />
          <path
             id="Path-26"
             data-name="Path"
             class="cls-10"
             d="m 108.59,152 c 0.56,-0.35 1.14,-0.65 1.71,-0.95 1.42,-0.78 3.47,-1.58 4.35,-3 a 1.71,1.71 0 0 0 -0.12,-1.93 c -1.29,-1.56 -4.1,1 -5.54,-0.72 -0.29,-0.34 -0.42,-5.75 -0.42,-5.75 l -5.48,1.48 c 0,0 -0.94,10.91 -0.83,11.55 0.11,0.64 2,1.28 2,1.28 a 4.62,4.62 0 0 0 1.58,-0.64 c 0.57,-0.42 0,-5.52 0.78,-4.8 0.78,0.72 1.06,3.5 1.06,3.5 a 3.54,3.54 0 0 0 0.91,-0.02 z" />
          <path
             id="Path-27"
             data-name="Path"
             class="cls-18"
             d="m 89.81,116.73 -1.61,21.58 c 0,0 2.57,3.55 11.2,1.58 l 0.08,-14.55" />
          <path
             id="Path-28"
             data-name="Path"
             class="cls-18"
             d="m 99.77,121 c -0.18,1.86 0,22.36 0,22.36 0,0 2.39,4.47 12.78,0 l -0.15,-17.42" />
          <path
             id="Path-29"
             data-name="Path"
             class="cls-18"
             d="m 89,123.86 c 0.7,0.49 0.95,-2 1.69,-1.6 a 41.51,41.51 0 0 0 8.53,3.74 h 0.06 a 0.61,0.61 0 0 1 0.46,0 0.58,0.58 0 0 1 0.33,0.32 46.18,46.18 0 0 0 5.59,1.28 c 2.43,0.39 4.43,-1.4 6.92,-1.53 0,-9.53 0,-36.65 -4,-42.44 l -12,-4 c -0.06,1 -5.83,7.68 -5.69,15.83 A 183.16,183.16 0 0 1 89.65,116.2 C 89.6,116.64 89,123.34 89,123.86 Z" />
          <path
             id="Path-30"
             data-name="Path"
             class="cls-16"
             d="m 109.67,72.66 -1.1,10.93 c 0,0 -9,0.36 -12.82,-2.3 V 72" />
          <path
             id="Path-31"
             data-name="Path"
             d="m 121.07,65.46 -0.92,1.25 a 28.42,28.42 0 0 0 1.29,-3.12 c 0.26,-0.72 -0.91,-1 -1.16,-0.29 l -0.14,0.38 c 0.11,-0.39 0.22,-0.78 0.32,-1.17 a 0.60270225,0.60270225 0 0 0 -1.17,-0.29 28.59,28.59 0 0 1 -0.91,3 21.36,21.36 0 0 0 0.43,-2.64 c 0.08,-0.76 -1.13,-0.73 -1.2,0 a 18.93,18.93 0 0 1 -0.54,3 6.06,6.06 0 0 0 -0.09,-1 0.6,0.6 0 0 0 -0.26,-0.43 c 0,-0.13 -0.07,-0.26 -0.11,-0.4 a 0.62,0.62 0 0 0 -0.67,-0.4 0.6,0.6 0 0 0 -0.51,0.58 l -0.08,4.5 a 5.21,5.21 0 0 1 -0.84,1.29 19,19 0 0 1 1.67,1.28 16.59,16.59 0 0 1 1.37,1.28 c 0.38,-0.48 0.75,-1 1.11,-1.46 l 0.12,-0.13 q 1.6,-2.39 3.32,-4.68 c 0.47,-0.57 -0.58,-1.16 -1.03,-0.55 z"
             style="fill:#ffb5a9" />
          <path
             id="Path-32"
             data-name="Path"
             class="cls-16"
             d="m 104,62.69 c 0,0 4.23,1.14 6,3.86 a 48.49,48.49 0 0 1 2.83,5.85 l 3.13,-4.86 c 0,0 3.8,1.17 5.3,3 0,0 -4.5,9.84 -8.43,10.68 -3.93,0.84 -8.09,-5.77 -8.09,-5.77 0,0 -0.86,2.76 -0.69,-0.19" />
          <path
             id="Path-33"
             data-name="Path"
             d="M 106.68,73.21 A 8.68,8.68 0 0 1 104,69.39 c -0.5,-1.73 0.13,-3.25 0.72,-4.86 a 15.32,15.32 0 0 0 1.11,-5 50.08,50.08 0 0 0 -0.26,-5 0.81,0.81 0 0 1 0,-0.22 c -0.56,-1.9 -1.72,-3.51 -4,-3.7 -5.91,-0.5 -6.25,6 -6.2,8.71 0.05,2.71 0.32,4.46 -1.64,5.57 -1.96,1.11 -3.38,4 -1.5,6.4 1.88,2.4 0.19,1.49 -1.06,3.59 -1.25,2.1 -0.92,4.71 1.64,5.66 2.56,0.95 14.46,-0.83 15.55,-1.93 a 2.26,2.26 0 0 0 0.56,-1.61 6.24,6.24 0 0 0 -2.23,-3.75 z"
             style="fill:#007f68" />
          <path
             id="Shape-7"
             data-name="Shape"
             class="cls-10"
             d="m 112.49,19.21 a 9.47,9.47 0 0 1 1.67,4.89 3.18,3.18 0 0 1 -0.54,2.28 1.33,1.33 0 0 1 -1.6,0.28 2.51,2.51 0 0 1 -0.86,-0.58 2.89,2.89 0 0 1 -0.55,-0.7 l -0.16,-0.3 a 1.07,1.07 0 0 1 -0.15,0.22 1.18,1.18 0 0 1 -0.53,0.22 1.63,1.63 0 0 1 -1,-0.11 3.64,3.64 0 0 1 -1.69,-1.51 4.84,4.84 0 0 1 -0.74,-2.44 2.36,2.36 0 0 1 0.6,-1.93 1.39,1.39 0 0 1 1.56,-0.25 2.67,2.67 0 0 1 0.7,0.44 2.47,2.47 0 0 1 0.46,0.51 l 0.12,0.21 v -0.58 l 1.29,0.5 0.12,3.62 a 1.38,1.38 0 0 0 0.24,0.73 1.19,1.19 0 0 0 0.52,0.47 c 0.62,0.24 0.91,-0.3 0.87,-1.61 a 7,7 0 0 0 -1.25,-3.64 6,6 0 0 0 -2.85,-2.43 2.41,2.41 0 0 0 -2.67,0.34 3.67,3.67 0 0 0 -1,3 7.69,7.69 0 0 0 1.29,3.85 5.88,5.88 0 0 0 2.75,2.58 3.28,3.28 0 0 0 1.28,0.25 1.73,1.73 0 0 0 0.84,-0.16 l 0.26,-0.14 0.77,1.45 -0.12,0.09 a 3.26,3.26 0 0 1 -0.38,0.18 2.52,2.52 0 0 1 -0.65,0.18 3,3 0 0 1 -0.85,0 4.48,4.48 0 0 1 -1.09,-0.28 7,7 0 0 1 -2.57,-1.89 11.1,11.1 0 0 1 -2,-3.11 9.58,9.58 0 0 1 -0.82,-3.46 5.51,5.51 0 0 1 0.59,-2.9 3.24,3.24 0 0 1 1.83,-1.6 3.46,3.46 0 0 1 2.53,0.13 8.16,8.16 0 0 1 3.77,3.22 z m -2.83,4.58 a 1.32,1.32 0 0 0 0.26,-1 2.55,2.55 0 0 0 -0.34,-1.19 1.66,1.66 0 0 0 -0.78,-0.7 0.68,0.68 0 0 0 -0.79,0.1 1.14,1.14 0 0 0 -0.28,0.93 2.41,2.41 0 0 0 0.36,1.2 1.71,1.71 0 0 0 0.82,0.73 0.65,0.65 0 0 0 0.75,-0.11" />
          <path
             id="Shape-8"
             data-name="Shape"
             class="cls-10"
             d="m 188.44,88.85 a 9.41,9.41 0 0 1 1.67,4.89 3.19,3.19 0 0 1 -0.54,2.28 1.33,1.33 0 0 1 -1.6,0.27 2.49,2.49 0 0 1 -0.86,-0.57 3.14,3.14 0 0 1 -0.55,-0.71 l -0.16,-0.3 a 1.07,1.07 0 0 1 -0.15,0.22 1.19,1.19 0 0 1 -0.53,0.23 1.63,1.63 0 0 1 -0.95,-0.11 3.6,3.6 0 0 1 -1.68,-1.52 4.73,4.73 0 0 1 -0.75,-2.44 2.38,2.38 0 0 1 0.59,-1.93 1.37,1.37 0 0 1 1.56,-0.25 2.13,2.13 0 0 1 0.7,0.44 2.85,2.85 0 0 1 0.47,0.51 l 0.12,0.21 V 89.5 l 1.28,0.49 0.13,3.62 a 1.43,1.43 0 0 0 0.23,0.72 1.15,1.15 0 0 0 0.53,0.47 c 0.65,0.25 0.91,-0.29 0.87,-1.61 a 6.88,6.88 0 0 0 -1.24,-3.63 6.11,6.11 0 0 0 -2.84,-2.43 2.42,2.42 0 0 0 -2.68,0.33 3.67,3.67 0 0 0 -1,3 7.6,7.6 0 0 0 1.29,3.85 5.9,5.9 0 0 0 2.78,2.49 3.29,3.29 0 0 0 1.28,0.26 1.85,1.85 0 0 0 0.84,-0.15 l 0.26,-0.15 0.77,1.45 -0.12,0.09 a 3.26,3.26 0 0 1 -0.38,0.18 2.52,2.52 0 0 1 -0.65,0.18 3.1,3.1 0 0 1 -0.86,0 4.52,4.52 0 0 1 -1.08,-0.28 7.07,7.07 0 0 1 -2.57,-1.89 11,11 0 0 1 -2,-3.12 9.33,9.33 0 0 1 -0.82,-3.45 5.46,5.46 0 0 1 0.59,-2.89 3.31,3.31 0 0 1 1.83,-1.62 3.59,3.59 0 0 1 2.54,0.13 8.22,8.22 0 0 1 3.68,3.31 z m -2.84,4.57 a 1.26,1.26 0 0 0 0.27,-1 2.48,2.48 0 0 0 -0.34,-1.19 1.61,1.61 0 0 0 -0.77,-0.71 0.71,0.71 0 0 0 -0.8,0.1 1.2,1.2 0 0 0 -0.29,0.93 2.52,2.52 0 0 0 0.37,1.19 1.73,1.73 0 0 0 0.82,0.74 0.64,0.64 0 0 0 0.74,-0.11" />
          <path
             id="Path-34"
             data-name="Path"
             d="M 60.25,116.27 38.48,103.88 16.71,116.29 c 0,0 12.11,7.57 22.95,13.92 6.89,-4.86 13,-10.42 20.59,-13.94 z"
             style="opacity:0.25;isolation:isolate;fill:url(#linear-gradient-5)" />
        </g>
      </g>
      <path
         id="path-6-2"
         data-name="path-6"
         style="fill-rule:evenodd"
         d="m 20.93,81.47 v 26.94 l 20.98,12.01 23.7,-14.01 V 79.48" />
      <path
         id="path-6-3"
         data-name="path-6"
         style="fill:#ff9271;fill-rule:evenodd"
         d="m 20.93,81.47 v 26.94 l 20.98,12.01 23.7,-14.01 V 79.48" />
      <path
         id="Path-35"
         data-name="Path"
         style="fill:#df5c34"
         d="m 41.91,93.49 v 26.93 l 23.7,-14.01 V 79.48 Z" />
      <path
         id="Path-36"
         data-name="Path"
         class="cls-10"
         d="M 20.93,81.47 45.28,67.59 65.61,79.48 41.91,93.49 Z" />
      <path
         id="Shape-9"
         data-name="Shape"
         class="cls-18"
         d="m 42.47,73.78 a 12.91,12.91 0 0 1 7.1,1.56 c 1.25,0.73 1.93,1.49 2,2.29 a 2.1,2.1 0 0 1 -1.28,2.07 4.69,4.69 0 0 1 -1.49,0.59 5.42,5.42 0 0 1 -1.33,0.14 h -0.48 a 1.89,1.89 0 0 1 0.09,0.34 1.64,1.64 0 0 1 -0.26,0.77 2.91,2.91 0 0 1 -1.05,1 6.34,6.34 0 0 1 -3.35,0.88 6.63,6.63 0 0 1 -3.42,-0.88 2.64,2.64 0 0 1 -1.55,-2.08 2.25,2.25 0 0 1 1.28,-2 4.26,4.26 0 0 1 1.14,-0.46 4.35,4.35 0 0 1 1,-0.17 h 0.35 l -0.64,-0.39 1.8,-1.12 4.17,2.46 a 2.19,2.19 0 0 0 2.08,0 C 49.51,78.22 49.19,77.5 47.68,76.6 A 9.63,9.63 0 0 0 42.4,75.43 10.81,10.81 0 0 0 36.91,77 c -1.51,1 -2.26,2.07 -2.25,3.38 0.01,1.31 0.8,2.43 2.36,3.34 a 10.53,10.53 0 0 0 5.57,1.28 10.46,10.46 0 0 0 5.51,-1.46 6.28,6.28 0 0 0 1.53,-1.28 2.94,2.94 0 0 0 0.64,-1.09 l 0.09,-0.41 2.38,0.14 v 0.21 a 5.54,5.54 0 0 1 -0.17,0.58 5.22,5.22 0 0 1 -0.41,0.86 6.25,6.25 0 0 1 -0.85,1 8,8 0 0 1 -1.38,1.07 12.92,12.92 0 0 1 -4.66,1.68 17.72,17.72 0 0 1 -5.44,0.09 12.46,12.46 0 0 1 -4.67,-1.52 6.12,6.12 0 0 1 -2.65,-2.79 4.09,4.09 0 0 1 0,-3.29 6.28,6.28 0 0 1 2.63,-2.88 14.41,14.41 0 0 1 7.33,-2.14 z m 2.33,6.63 a 1.34,1.34 0 0 0 -0.8,-1 3.24,3.24 0 0 0 -1.66,-0.41 2.79,2.79 0 0 0 -1.55,0.4 1.13,1.13 0 0 0 -0.64,1 1.27,1.27 0 0 0 0.75,1 3.36,3.36 0 0 0 1.7,0.43 3.13,3.13 0 0 0 1.63,-0.43 1,1 0 0 0 0.6,-1" />
    </g>
    <path
       d="M 88.202677,176.17228 58.6257,158.23115 c -0.941917,-0.54345 -1.748896,-1.43404 -0.831321,-2.01798 l 29.682017,-17.55881 c 0.445029,-0.2831 1.12104,-0.4691 1.574536,-0.19843 l 31.043038,18.49543 c 0.94165,0.56092 1.11072,2.12408 0.17251,2.69081 l -28.166225,16.50154 a 3.8443958,3.8443958 0 0 1 -3.897578,0.0283 z"
       fill="#6862e6"
       fill-rule="nonzero"
       opacity="0.099"
       id="path425"
       style="stroke-width:0.264583"
       clip-path="url(#clipPath918)" />
  </g>
</svg>
